<svg id="Group" xmlns="http://www.w3.org/2000/svg" width="16" height="16" viewBox="0 0 16 16">
  <path id="Vector" d="M15.733-15.467h-1.6v8.8a.267.267,0,0,1-.267.267H10.133V-.267A.267.267,0,0,1,9.867,0H2.933a.267.267,0,0,1-.267-.267v-15.2H.267A.267.267,0,0,1,0-15.733.267.267,0,0,1,.267-16H15.733a.267.267,0,0,1,.267.267A.267.267,0,0,1,15.733-15.467Zm-10.133,0H4.533v2.4A.267.267,0,0,0,4.8-12.8h.533a.267.267,0,0,0,.267-.267Zm1.067,8.8v-8.8H6.133v2.4a.8.8,0,0,1-.8.8H4.8a.8.8,0,0,1-.8-.8v-2.4H3.2V-.533H9.6V-6.4H6.933A.267.267,0,0,1,6.667-6.667Zm6.933-8.8H7.2v8.533h6.4Z" transform="translate(16) rotate(180)" fill="#84829a"/>
  <path id="Vector-2" data-name="Vector" d="M1.867,0H.267A.267.267,0,0,1,0-.267v-1.6a.267.267,0,0,1,.267-.267h1.6a.267.267,0,0,1,.267.267v1.6A.267.267,0,0,1,1.867,0ZM1.6-1.6H.533V-.533H1.6Z" transform="translate(9.333 3.733) rotate(180)" fill="#84829a"/>
  <path id="Vector-3" data-name="Vector" d="M1.867,0H.267A.267.267,0,0,1,0-.267v-1.6a.267.267,0,0,1,.267-.267h1.6a.267.267,0,0,1,.267.267v1.6A.267.267,0,0,1,1.867,0ZM1.6-1.6H.533V-.533H1.6Z" transform="translate(9.333 1.067) rotate(180)" fill="#84829a"/>
  <path id="Vector-4" data-name="Vector" d="M1.867,0H.267A.267.267,0,0,1,0-.267v-1.6a.267.267,0,0,1,.267-.267h1.6a.267.267,0,0,1,.267.267v1.6A.267.267,0,0,1,1.867,0ZM1.6-1.6H.533V-.533H1.6Z" transform="translate(12 3.733) rotate(180)" fill="#84829a"/>
  <path id="Vector-5" data-name="Vector" d="M1.867,0H.267A.267.267,0,0,1,0-.267v-1.6a.267.267,0,0,1,.267-.267h1.6a.267.267,0,0,1,.267.267v1.6A.267.267,0,0,1,1.867,0ZM1.6-1.6H.533V-.533H1.6Z" transform="translate(12 1.067) rotate(180)" fill="#84829a"/>
  <path id="Vector-6" data-name="Vector" d="M1.867,0H.267A.267.267,0,0,1,0-.267v-1.6a.267.267,0,0,1,.267-.267h1.6a.267.267,0,0,1,.267.267v1.6A.267.267,0,0,1,1.867,0ZM1.6-1.6H.533V-.533H1.6Z" transform="translate(12 6.4) rotate(180)" fill="#84829a"/>
  <path id="Vector-7" data-name="Vector" d="M1.867,0H.267A.267.267,0,0,1,0-.267v-1.6a.267.267,0,0,1,.267-.267h1.6a.267.267,0,0,1,.267.267v1.6A.267.267,0,0,1,1.867,0ZM1.6-1.6H.533V-.533H1.6Z" transform="translate(12 9.067) rotate(180)" fill="#84829a"/>
  <path id="Vector-8" data-name="Vector" d="M.267-2.133h1.6a.267.267,0,0,1,.267.267v1.6A.267.267,0,0,1,1.867,0H.267A.267.267,0,0,1,0-.267v-1.6A.267.267,0,0,1,.267-2.133Zm.267,1.6H1.6V-1.6H.533Z" transform="translate(5.333 10.133) rotate(180)" fill="#84829a"/>
  <path id="Vector-9" data-name="Vector" d="M.267-2.133h1.6a.267.267,0,0,1,.267.267v1.6A.267.267,0,0,1,1.867,0H.267A.267.267,0,0,1,0-.267v-1.6A.267.267,0,0,1,.267-2.133Zm.267,1.6H1.6V-1.6H.533Z" transform="translate(5.333 7.467) rotate(180)" fill="#84829a"/>
  <path id="Vector-10" data-name="Vector" d="M.267-2.133h1.6a.267.267,0,0,1,.267.267v1.6A.267.267,0,0,1,1.867,0H.267A.267.267,0,0,1,0-.267v-1.6A.267.267,0,0,1,.267-2.133Zm.267,1.6H1.6V-1.6H.533Z" transform="translate(5.333 12.8) rotate(180)" fill="#84829a"/>
  <path id="Vector-11" data-name="Vector" d="M.267-2.133h1.6a.267.267,0,0,1,.267.267v1.6A.267.267,0,0,1,1.867,0H.267A.267.267,0,0,1,0-.267v-1.6A.267.267,0,0,1,.267-2.133Zm.267,1.6H1.6V-1.6H.533Z" transform="translate(8 10.133) rotate(180)" fill="#84829a"/>
  <path id="Vector-12" data-name="Vector" d="M.267-2.133h1.6a.267.267,0,0,1,.267.267v1.6A.267.267,0,0,1,1.867,0H.267A.267.267,0,0,1,0-.267v-1.6A.267.267,0,0,1,.267-2.133Zm.267,1.6H1.6V-1.6H.533Z" transform="translate(8 7.467) rotate(180)" fill="#84829a"/>
  <path id="Vector-13" data-name="Vector" d="M.267-2.133h1.6a.267.267,0,0,1,.267.267v1.6A.267.267,0,0,1,1.867,0H.267A.267.267,0,0,1,0-.267v-1.6A.267.267,0,0,1,.267-2.133Zm.267,1.6H1.6V-1.6H.533Z" transform="translate(8 12.8) rotate(180)" fill="#84829a"/>
</svg>
